{"title":"W. Witse de Film 2014 DVD9rip Dutch English subs Klam","uid":10864516,"size":1393098112,"categoryP":"video","categoryS":"movies","magnet":"?xt=urn:btih:7a681d2a6d289ce426fecdd7ddd4388d4206beb6&amp;dn=W.+Witse+de+Film+2014+DVD9rip+Dutch+English+subs+Klam&amp;tr=udp%3A%2F%2Ftracker.openbittorrent.com%3A80&amp;tr=udp%3A%2F%2Fopen.demonii.com%3A1337&amp;tr=udp%3A%2F%2Ftracker.coppersurfer.tk%3A6969&amp;tr=udp%3A%2F%2Fexodus.desync.com%3A6969","seeders":1,"leechers":0,"uploader":"Klambake","files":-1,"time":1408908329,"description":"With: Hubert Damen, Wim Opbrouck and Katelijne Verbeke\n\nNederlands gesproken, met losse Engelse ondertitel\nWitse, inmiddels gepensioneerd, keert terug naar zijn geboortestreek om de moordenaar van zijn nichtje te vinden. Oude familiewonden worden opengereten. Het duurt niet lang voordat Witse in aanvaring komt met de lokale politie.\n\nDutch spoken, English soft subs,\n&quot;W.&quot; (a/k/a &quot;Witse de Film&quot; or &quot;Witse the Movie&quot;; 2014 release from Belgium; 90 min.) finds our hero now retired from the police force. As the movie opens, we see the long-forgotten sister of Witse attempting to make contact with him. Apparently her 20 yr. old daughter has disappeared and is eventually found brutally murdered. Witse &quot;volunteers&quot; his services to the cops to help out his sister, and off we go to track what eventually becomes a serial murder case. To tell you more would spoil your viewing experience.\n &lt;a href=&quot;\nhttp://www.imdb.com/title/tt3558196&quot; rel=&quot;nofollow&quot; target=&quot;_NEW&quot;&gt;\nhttp://www.imdb.com/title/tt3558196&lt;/a&gt;\t\n\n--------------------- Dutch Friends 4ever ---------------------\n---------------------------------------------------------------\n- Bezoek ook eens mijn vrienden op: &lt;a href=&quot; http://www.Film-Test.nl&quot; rel=&quot;nofollow&quot; target=&quot;_NEW&quot;&gt; http://www.Film-Test.nl&lt;/a&gt; --\n----- voor mijn Nederlandse Sync. ondertitels ---- en meer ----\n------- http://www.Film-Test.nl ---- Over Films en meer -------\n---------------------------------------------------------------\n &lt;a href=&quot;\nhttp://i.imgur.com/Vq4Ohlu.jpg&quot; rel=&quot;nofollow&quot; target=&quot;_NEW&quot;&gt;\nhttp://i.imgur.com/Vq4Ohlu.jpg&lt;/a&gt; &lt;a href=&quot;\nhttp://i.imgur.com/QDN4vM4.jpg&quot; rel=&quot;nofollow&quot; target=&quot;_NEW&quot;&gt;\nhttp://i.imgur.com/QDN4vM4.jpg&lt;/a&gt; &lt;a href=&quot;\nhttp://i.imgur.com/3aEr9Xg.jpg&quot; rel=&quot;nofollow&quot; target=&quot;_NEW&quot;&gt;\nhttp://i.imgur.com/3aEr9Xg.jpg&lt;/a&gt;\n\nGeneral:\n\nComplete name                            : Witse de FilmWitse de Film.avi\nFormat                                   : AVI\nFormat/Info                              : Audio Video Interleave\nFile size                                : 1.30 GiB\nDuration                                 : 1h 38mn\nOverall bit rate                         : 1 893 Kbps\n\nVideo:\n\nFormat                                   : MPEG-4 Visual\nFormat profile                           : Simple@L3\nFormat settings, BVOP                    : No\nFormat settings, QPel                    : No\nFormat settings, GMC                     : No warppoints\nFormat settings, Matrix                  : Default (H.263)\nCodec ID                                 : XVID\nCodec ID/Hint                            : XviD\nDuration                                 : 1h 38mn\nSource duration                          : 1h 38mn\nBit rate                                 : 1 434 Kbps\nWidth                                    : 720 pixels\nHeight                                   : 304 pixels\nDisplay aspect ratio                     : 2.35:1\nFrame rate                               : 25.000 fps\nColor space                              : YUV\nChroma subsampling                       : 4:2:0\nBit depth                                : 8 bits\nScan type                                : Progressive\nCompression mode                         : Lossy\nBits/(Pixel*Frame)                       : 0.262\nStream size                              : 1 006 MiB (76%)\nWriting library                          : XviD 1.1.2 (UTC 2006-11-01)\n\nAudio:\n\nFormat                                   : AC-3\nFormat/Info                              : Audio Coding 3\nMode extension                           : CM (complete main)\nFormat settings, Endianness              : Big\nCodec ID                                 : 2000\nDuration                                 : 1h 38mn\nBit rate mode                            : Constant\nBit rate                                 : 448 Kbps\nChannel(s)                               : 6 channels\nChannel positions                        : Front: L C R, Side: L R, LFE\nSampling rate                            : 48.0 KHz\nBit depth                                : 16 bits\nCompression mode                         : Lossy\nStream size                              : 314 MiB (24%)\nAlignment                                : Aligned on interleaves\nInterleave, duration                     : 32 ms (0.80 video frame)\n\n\n","torrent":{"xt":"urn:btih:7a681d2a6d289ce426fecdd7ddd4388d4206beb6","amp;dn":"W.+Witse+de+Film+2014+DVD9rip+Dutch+English+subs+Klam","amp;tr":["udp%3A%2F%2Ftracker.openbittorrent.com%3A80","udp%3A%2F%2Fopen.demonii.com%3A1337","udp%3A%2F%2Ftracker.coppersurfer.tk%3A6969","udp%3A%2F%2Fexodus.desync.com%3A6969"],"infoHash":"7a681d2a6d289ce426fecdd7ddd4388d4206beb6","infoHashBuffer":{"type":"Buffer","data":[122,104,29,42,109,40,156,228,38,254,205,215,221,212,56,141,66,6,190,182]},"announce":[],"urlList":[]}}